<?xml version="1.0" encoding="UTF-8" standalone="no"?>
<!DOCTYPE svg PUBLIC "-//W3C//DTD SVG 1.1//EN" "http://www.w3.org/Graphics/SVG/1.1/DTD/svg11.dtd">
<!-- 由 Microsoft Visio, SVG Export 生成 dataset_icon.svg 页-1 -->
<svg xmlns="http://www.w3.org/2000/svg" xmlns:xlink="http://www.w3.org/1999/xlink" xmlns:ev="http://www.w3.org/2001/xml-events"
		xmlns:v="http://schemas.microsoft.com/visio/2003/SVGExtensions/" width="7.82in" height="7.20239in"
		viewBox="0 0 563.04 518.572" xml:space="preserve" color-interpolation-filters="sRGB" class="st2">
	<v:documentProperties v:langID="2052" v:metric="true" v:viewMarkup="false"/>

	<style type="text/css">
	<![CDATA[
		.st1 {fill:#000000;stroke:none;stroke-linecap:butt;stroke-width:6.12}
		.st2 {fill:none;fill-rule:evenodd;font-size:12px;overflow:visible;stroke-linecap:square;stroke-miterlimit:3}
	]]>
	</style>

	<g v:mID="0" v:index="1" v:groupContext="foregroundPage">
		<title>页-1</title>
		<v:pageProperties v:drawingScale="1" v:pageScale="1" v:drawingUnits="19" v:shadowOffsetX="9" v:shadowOffsetY="-9"/>
		<g id="group2-1" transform="translate(6.12,-6.12)" v:mID="2" v:groupContext="group">
			<title>工作表.2</title>
			<g id="shape1-2" v:mID="1" v:groupContext="shape">
				<title>工作表.1</title>
				<path d="M189.15 188.75 L245.11 188.75 A7.65 7.65 0 0 1 245.11 204.05 L189.15 204.05 A7.65 7.65 0 1 1 189.15 188.75
							 ZM245.11 299.07 L189.15 299.07 A7.65 7.65 -180 0 0 189.15 314.37 L245.11 314.37 A7.65 7.65 -180 0 0
							 245.11 299.07 ZM245.11 409.4 L189.15 409.4 A7.65 7.65 -180 0 0 189.15 424.7 L245.11 424.7 A7.65 7.65
							 -180 1 0 245.11 409.4 ZM472.07 389.03 A50.796 50.796 0 1 1 421.27 338.23 A50.8756 50.8756 0 0 1 472.07
							 389.03 ZM456.77 389.03 A35.496 35.496 -180 1 0 421.27 424.53 A35.5511 35.5511 -180 0 0 456.77 389.03
							 ZM550.8 372.23 L550.8 405.81 A7.65612 7.65612 0 0 1 544.2 413.39 L519.25 416.83 A101.047 101.047 0 0
							 1 510.2 438.65 L525.41 458.72 A7.65612 7.65612 0 0 1 524.73 468.76 L500.98 492.5 A7.65612 7.65612 0
							 0 1 490.95 493.19 L470.88 477.97 A100.594 100.594 0 0 1 449.06 487.02 L445.62 511.97 A7.65612 7.65612
							 0 0 1 438.04 518.57 L404.46 518.57 A7.65 7.65 0 0 1 396.88 511.97 L393.45 487.02 A100.919 100.919 0
							 0 1 371.62 477.97 L351.55 493.19 A7.65612 7.65612 0 0 1 341.52 492.5 L321.01 472 A657.6 657.6 0 0 1
							 217.14 479.88 C111.87 479.88 0 455.93 0 411.56 L0 80.51 C0.09 36.17 111.91 12.24 217.14 12.24 C322.36
							 12.24 434.27 36.19 434.27 80.58 L434.27 259.48 L438.04 259.48 A7.65 7.65 0 0 1 445.62 266.08 L449.06
							 291.02 A101.206 101.206 0 0 1 470.88 300.07 L490.95 284.86 A7.65612 7.65612 0 0 1 500.98 285.55 L524.73
							 309.29 A7.65 7.65 0 0 1 525.41 319.32 L510.2 339.39 A101.09 101.09 0 0 1 519.25 361.22 L544.2 364.65
							 A7.65 7.65 0 0 1 550.8 372.23 ZM418.97 259.48 L418.97 217.46 C403.41 229.93 378.69 238.39 357.93 243.72
							 A588.977 588.977 0 0 1 217.14 259.21 C135.28 259.21 49.45 244.73 15.3 217.42 L15.3 301.23 C15.3 310.6
							 29.99 324.86 71.13 336.78 C110.03 348.04 161.88 354.24 217.14 354.24 A622.098 622.098 -180 0 0 329.56
							 344.64 C330.42 342.87 331.34 341.12 332.3 339.4 L317.08 319.32 A7.64388 7.64388 0 0 1 317.77 309.29
							 L341.52 285.55 A7.65 7.65 0 0 1 351.55 284.86 L371.62 300.07 A101.206 101.206 0 0 1 393.45 291.02 L396.88
							 266.08 A7.64388 7.64388 0 0 1 404.46 259.48 L418.97 259.48 ZM418.97 107.09 C384.84 134.4 299.02 148.88
							 217.14 148.88 C135.26 148.88 49.45 134.4 15.3 107.09 L15.3 190.9 C15.3 200.26 29.99 214.52 71.13 226.45
							 C110.03 237.71 161.88 243.91 217.14 243.91 A573.615 573.615 -180 0 0 354.13 228.9 C388.76 220.01 412.6
							 207.55 417.91 195.59 A7.55208 7.55208 0 0 1 418.97 193.87 L418.97 107.09 ZM15.3 80.58 C15.3 89.92 29.99
							 104.16 71.26 116.08 C110.22 127.36 162.03 133.58 217.14 133.58 C272.24 133.58 324.05 127.36 363.01 116.08
							 C404.27 104.13 418.97 89.9 418.97 80.58 C418.97 71.27 404.28 57.01 363.01 45.09 C324.05 33.8 272.24
							 27.58 217.14 27.58 C162.04 27.58 110.22 33.8 71.26 45.09 C29.99 56.99 15.3 71.22 15.3 80.58 ZM332.32
							 438.65 A101.206 101.206 0 0 1 323.27 416.83 L298.33 413.39 A7.65 7.65 0 0 1 291.72 405.81 L291.72 372.23
							 A7.65612 7.65612 0 0 1 296.74 365.05 A686.878 686.878 0 0 1 217.18 369.54 C135.32 369.54 49.49 355.06
							 15.34 327.75 L15.34 411.56 C15.34 420.93 30.03 435.19 71.18 447.11 C110.07 458.38 161.92 464.58 217.18
							 464.58 A642.282 642.282 -180 0 0 318.5 456.91 L332.32 438.65 ZM535.5 378.9 L512.07 375.68 A7.65612 7.65612
							 0 0 1 505.65 369.79 A85.8514 85.8514 -180 0 0 494.53 342.95 A7.64388 7.64388 0 0 1 494.9 334.26 L509.18
							 315.39 L494.87 301.08 L476.01 315.38 A7.65612 7.65612 0 0 1 467.3 315.75 A85.8942 85.8942 -180 0 0 440.47
							 304.62 A7.65 7.65 0 0 1 434.59 298.2 L431.36 274.78 L411.13 274.78 L407.9 298.21 A7.65 7.65 0 0 1 402.02
							 304.62 A85.8636 85.8636 -180 0 0 375.16 315.75 A7.64388 7.64388 0 0 1 366.46 315.38 L347.62 301.08 L333.3
							 315.39 L347.62 334.26 A7.64388 7.64388 0 0 1 347.99 342.95 A85.986 85.986 -180 0 0 336.86 369.79 A7.65
							 7.65 0 0 1 330.45 375.68 L307.02 378.9 L307.02 399.15 L330.45 402.37 A7.64388 7.64388 0 0 1 336.86 408.26
							 A85.833 85.833 -180 0 0 347.99 435.09 A7.66224 7.66224 0 0 1 347.62 443.79 L333.31 462.65 L347.62 476.97
							 L366.48 462.67 A7.64388 7.64388 0 0 1 375.17 462.29 A85.937 85.937 -180 0 0 402.01 473.42 A7.64388 7.64388
							 0 0 1 407.9 479.84 L411.12 503.27 L431.37 503.27 L434.59 479.83 A7.65 7.65 0 0 1 440.48 473.42 A85.7473
							 85.7473 -180 0 0 467.31 462.29 A7.65612 7.65612 0 0 1 476.01 462.67 L494.88 476.97 L509.18 462.65 L494.89
							 443.79 A7.65612 7.65612 0 0 1 494.51 435.09 A85.8758 85.8758 -180 0 0 505.63 408.26 A7.65 7.65 0 0 1
							 512.05 402.37 L535.49 399.15 L535.5 378.9 Z" class="st1"/>
			</g>
		</g>
	</g>
</svg>
